<svg width="120" height="100" viewBox="0 0 120 100" fill="none" xmlns="http://www.w3.org/2000/svg">
    <g id="triangles" clip-path="url(#clip0_0:1)">
        <rect width="120" height="100" fill="white" />
        <g id="pinkGroup">
            <path id="pink2" opacity="0.7" d="M37.9481 47.7669C39.3289 48.5202 39.3399 50.499 37.9676 51.2676L8.94152 67.5239C7.61265 68.2682 5.97273 67.3131 5.96427 65.79L5.78541 33.601C5.77695 32.0779 7.40615 31.1047 8.74321 31.8342L37.9481 47.7669Z" fill="#E175F2" />
            <path id="pink1" opacity="0.7" d="M52.9482 47.7669C54.3289 48.5202 54.3399 50.499 52.9676 51.2676L23.9415 67.5239C22.6127 68.2682 20.9727 67.3131 20.9643 65.79L20.7854 33.601C20.777 32.0779 22.4062 31.1047 23.7432 31.8342L52.9482 47.7669Z" fill="#E175F2" />
        </g>
        <g id="purpleGroup">
            <path id="purple1" opacity="0.7" d="M37.9481 47.7669C39.3289 48.5202 39.3399 50.499 37.9676 51.2676L8.94152 67.5239C7.61265 68.2682 5.97273 67.3131 5.96427 65.79L5.78541 33.601C5.77695 32.0779 7.40615 31.1047 8.74321 31.8342L37.9481 47.7669Z" fill="#7F75F2" />
        </g>
    </g>
    <defs>
        <clipPath id="clip0_0:1">
            <rect width="120" height="100" fill="white" />
        </clipPath>
    </defs>
</svg>